<?xml version="1.0" standalone="no"?><!DOCTYPE svg PUBLIC "-//W3C//DTD SVG 1.1//EN" "http://www.w3.org/Graphics/SVG/1.1/DTD/svg11.dtd"><svg t="1608468196032" class="icon" viewBox="0 0 1024 1024" version="1.1" xmlns="http://www.w3.org/2000/svg" p-id="4070" xmlns:xlink="http://www.w3.org/1999/xlink" width="200" height="200"><defs><style type="text/css"></style></defs><path d="M924.95 339.28c-22.52-53.24-54.75-101.06-95.81-142.11-41.05-41.05-88.86-73.29-142.11-95.81C631.9 78.05 573.35 66.22 513 66.22s-118.9 11.82-174.04 35.15c-53.24 22.52-101.05 54.75-142.11 95.81s-73.29 88.86-95.81 142.11C77.73 394.42 65.9 452.97 65.9 513.32c0 60.35 11.82 118.9 35.15 174.04 22.52 53.24 54.75 101.05 95.81 142.11 41.05 41.05 88.86 73.29 142.11 95.81 55.14 23.32 113.69 35.15 174.04 35.15s118.9-11.82 174.04-35.15c53.24-22.52 101.05-54.75 142.11-95.81 41.05-41.05 73.29-88.86 95.81-142.11 23.32-55.14 35.15-113.69 35.15-174.04-0.02-60.35-11.85-118.9-35.17-174.04zM358.83 878.3c-47.16-19.95-89.53-48.51-125.91-84.9-36.39-36.39-64.95-78.75-84.9-125.91-20.65-48.82-31.12-100.69-31.12-154.17 0-53.48 10.47-105.35 31.12-154.17 19.95-47.16 48.51-89.53 84.9-125.91 36.38-36.39 78.75-64.95 125.91-84.9 48.82-20.65 100.69-31.12 154.17-31.12v792.19c-53.48 0.01-105.35-10.46-154.17-31.11z" fill="#181818" p-id="4071"></path></svg>