<?xml version="1.0" standalone="no"?><!DOCTYPE svg PUBLIC "-//W3C//DTD SVG 1.1//EN" "http://www.w3.org/Graphics/SVG/1.1/DTD/svg11.dtd"><svg t="1608532528341" class="icon" viewBox="0 0 1024 1024" version="1.1" xmlns="http://www.w3.org/2000/svg" p-id="2240" xmlns:xlink="http://www.w3.org/1999/xlink" width="200" height="200"><defs><style type="text/css"></style></defs><path d="M608.375 414.006c19.626 19.656 51.383 19.656 71.04 0l180.706-178.961-1.164 144.34c-0.479 20.312 15.684 38.026 35.938 37.579h25.81c20.286-0.508 37.074-12.636 37.582-32.919l1.045-263.528c0-0.388-1.374-0.628-1.374-0.985l2.033-18.431c0.178-10.217-2.182-19.328-8.814-25.9-6.453-6.571-15.624-10.545-25.751-10.245l-18.343 0.388c-0.388 0-0.656 0.149-1.045 0.21L643.536 64c-20.285 0.448-37.074 17.267-37.581 37.609l-0.03 25.869c3.107 24.016 21.927 38.026 42.182 37.579l139.273 0.536-178.946 177.319c-19.687 19.565-19.687 51.38-0.06 71.094zM417.122 609.934c-19.627-19.685-51.413-19.685-71.07 0L165.316 787.79l1.165-141.054c0.448-20.343-15.654-38.056-35.91-37.549h-27.334c-20.343 0.508-37.103 12.576-37.55 32.919L64.61 903.453c0 0.328 1.375 0.598 1.375 1.015l-1.972 18.372c-0.21 10.216 2.15 19.387 8.753 25.869 6.482 6.601 15.624 10.574 25.691 10.335l18.403-0.477c0.358 0 0.597-0.15 1.015-0.15L379.959 960c20.284-0.537 37.074-17.325 37.582-37.668v-25.898c-3.077-23.957-21.898-36.444-42.153-35.996l-138.823-0.448 180.557-178.841c19.598-19.656 19.598-51.529 0-71.214v-0.001z" p-id="2241"></path></svg>