<?xml version="1.0" standalone="no"?><!DOCTYPE svg PUBLIC "-//W3C//DTD SVG 1.1//EN" "http://www.w3.org/Graphics/SVG/1.1/DTD/svg11.dtd"><svg t="1608469174318" class="icon" viewBox="0 0 1024 1024" version="1.1" xmlns="http://www.w3.org/2000/svg" p-id="2303" xmlns:xlink="http://www.w3.org/1999/xlink" width="200" height="200"><defs><style type="text/css"></style></defs><path d="M1015.03675399 461.832918c0-8.10530299-5.057348-14.506008-15.03657799-19.010208L37.185051 8.071436c-8.872936-3.996208-18.18613201-3.567236-25.568956 1.196605-7.371536 4.752552-11.59351801 13.07234-11.593518 22.803219l0 415.921685a32.037394 32.037394 0 0 0 31.992239 32.00352699L991.996472 479.996472c22.39682499 0 23.040282-16.300915 23.04028199-18.163554zM37.185051 1015.917275L1000.000176 581.154713c9.97923101-4.492911 15.047867-10.893617 15.047867-19.010209 0-1.862639-0.643457-18.152265-23.040282-18.152265l-959.981656 0a32.026105 32.026105 0 0 0-31.99223899 31.992239l-1e-8 415.932973c0 9.71959 4.221982 18.039378 11.582229 22.803219 7.371536 4.763841 16.684732 5.204101 25.568956 1.196605z m-5.170235-439.932797L933.690222 575.984478 32.014816 983.13482501 32.014816 575.984478z m-15.996119 415.932973l15.996119 0 0 0.056444-15.996119-0.056444z" p-id="2304"></path></svg>