<?xml version="1.0" standalone="no"?><!DOCTYPE svg PUBLIC "-//W3C//DTD SVG 1.1//EN" "http://www.w3.org/Graphics/SVG/1.1/DTD/svg11.dtd"><svg t="1608469163445" class="icon" viewBox="0 0 1024 1024" version="1.1" xmlns="http://www.w3.org/2000/svg" p-id="1986" xmlns:xlink="http://www.w3.org/1999/xlink" width="200" height="200"><defs><style type="text/css"></style></defs><path d="M461.832918 8.963246c-8.105303 0-14.506008 5.057348-19.010208 15.036578L8.071436 986.814949c-3.996208 8.872936-3.567236 18.186132 1.196605 25.568956 4.752552 7.371536 13.07234 11.593518 22.803219 11.593518h415.921685a32.037394 32.037394 0 0 0 32.003527-31.992239V32.003528c0-22.396825-16.300915-23.040282-18.163554-23.040282zM1015.917275 986.814949L581.154713 23.999824c-4.492911-9.979231-10.893617-15.047867-19.010209-15.047867-1.862639 0-18.152265 0.643457-18.152265 23.040282v959.981656a32.026105 32.026105 0 0 0 31.992239 31.992239h415.932973c9.71959 0 18.039378-4.221982 22.803219-11.582229 4.763841-7.371536 5.204101-16.684732 1.196605-25.568956z m-439.932797 5.170235V90.309778L983.134825 991.985184H575.984478z m415.932973 15.996119v-15.996119h0.056444l-0.056444 15.996119z" p-id="1987" fill="#2c2c2c"></path></svg>