<?xml version="1.0" standalone="no"?><!DOCTYPE svg PUBLIC "-//W3C//DTD SVG 1.1//EN" "http://www.w3.org/Graphics/SVG/1.1/DTD/svg11.dtd"><svg t="1608603000858" class="icon" viewBox="0 0 1024 1024" version="1.1" xmlns="http://www.w3.org/2000/svg" p-id="3008" xmlns:xlink="http://www.w3.org/1999/xlink" width="200" height="200"><defs><style type="text/css"></style></defs><path d="M621.1 954.3C736.4 884.4 772.9 758.7 742 644.2c-22.5-86.6-87.2-131.3-168.7-153.6-39.4-11.2-81.6-11.2-120.9-14-14.1 0-19.7 2.8-19.7 19.5v156.4c-11.2-2.8-14.1-8.4-19.7-14-90-89.4-177.2-176-264.3-265.4-5.6-5.6-16.9-11.2-5.6-22.3 95.6-95 191.2-187.2 289.6-284.9v122.9c0 19.5 2.8 25.1 25.3 25.1 75.9 2.8 149 14 219.3 44.7C812.3 317.4 877 423.5 882.6 566c8.4 170.4-90 326.8-239 385.5-2.8 0-5.6 2.8-8.4 2.8-8.5 5.6-14.1 8.4-14.1 0z m0 0" p-id="3009" fill="#2c2c2c"></path></svg>