<?xml version="1.0" standalone="no"?><!DOCTYPE svg PUBLIC "-//W3C//DTD SVG 1.1//EN" "http://www.w3.org/Graphics/SVG/1.1/DTD/svg11.dtd"><svg t="1608473451687" class="icon" viewBox="0 0 1024 1024" version="1.1" xmlns="http://www.w3.org/2000/svg" p-id="3173" xmlns:xlink="http://www.w3.org/1999/xlink" width="200" height="200"><defs><style type="text/css"></style></defs><path d="M64.89360459 139.3738376c0-15.17441836 9.35581377-28.61162754 22.76162754-34.46686055 14.02848809-5.81860459 30.38023213-2.90930273 40.88197705 8.17325508l75.9348835 75.34883759C286.82209268 110.76744219 398.33837247 64.61627891 513.39186055 64.61627891c247.03953487 0 448.52441836 201.48488349 448.52441836 448.52965136 0 247.00813945-201.48488349 448.49302295-448.52441836 448.49302296-133.72848808 0-259.86453487-58.99709268-345.1238376-161.78546515-5.85-7.58720918-5.85-18.66976787 1.15116328-25.07965048l80.02151104-80.61279082c4.08662753-3.50581377 9.35058164-5.23255781 14.58314033-5.2325587 5.26918623 0.55465137 10.53313945 2.90930273 13.44767431 6.99593028 57.22848809 74.17151192 143.0738376 116.19418623 235.92034864 116.19418623 164.69476787 0 299.00406972-134.30930273 299.00406972-298.97267432 0-164.69476787-134.30930273-299.00930273-299.00406972-299.00930274-76.5 0-148.90290732 29.20290732-203.80813946 79.99011651l80.58139542 80.58139541c11.11918623 10.53313945 14.02325596 26.88488349 8.17325595 40.32732568-5.81860459 13.99709268-19.26104678 23.34767432-34.43546514 23.34767432h-261.62790732c-20.43837246 0-37.38139541-16.93779083-37.38139541-37.38139541v-261.62790644z" p-id="3174"></path></svg>