<?xml version="1.0" standalone="no"?><!DOCTYPE svg PUBLIC "-//W3C//DTD SVG 1.1//EN" "http://www.w3.org/Graphics/SVG/1.1/DTD/svg11.dtd"><svg t="1608603234837" class="icon" viewBox="0 0 1024 1024" version="1.1" xmlns="http://www.w3.org/2000/svg" p-id="5475" xmlns:xlink="http://www.w3.org/1999/xlink" width="200" height="200"><defs><style type="text/css"></style></defs><path d="M212.16 160h389.344c12.096 0 23.744 4.224 33.024 11.84l3.84 3.456 210.336 210.336c8.576 8.576 13.856 19.808 15.04 31.744l0.256 5.12V811.84a52.16 52.16 0 0 1-47.648 51.968l-4.48 0.192H212.128a52.16 52.16 0 0 1-51.936-47.68L160 811.84V212.16a52.16 52.16 0 0 1 47.648-51.968L212.128 160h389.376z m482.368 322.144H329.472V811.84h365.056V482.144zM485.92 212.16h-156.448v91.264h156.48V212.16z" p-id="5476"></path></svg>