<?xml version="1.0" standalone="no"?><!DOCTYPE svg PUBLIC "-//W3C//DTD SVG 1.1//EN" "http://www.w3.org/Graphics/SVG/1.1/DTD/svg11.dtd"><svg t="1608603043236" class="icon" viewBox="0 0 1045 1024" version="1.1" xmlns="http://www.w3.org/2000/svg" p-id="4637" xmlns:xlink="http://www.w3.org/1999/xlink" width="204.1015625" height="200"><defs><style type="text/css"></style></defs><path d="M490.14071 813.411906c8.620565 8.620565 19.704149 12.930848 30.787733 12.930848s22.167168-4.310283 30.787733-12.930848l298.025255-298.025255c16.625376-16.625376 16.625376-44.334336 0-60.959712s-44.334336-16.625376-60.959711 0l-224.750451 224.750451V88.668671c0-24.014432-19.088394-43.102826-43.102826-43.102826s-43.102826 19.088394-43.102827 43.102826v589.27721L252.459411 453.811185c-16.625376-16.625376-44.334336-16.625376-60.959712 0s-16.625376 44.334336 0 60.959711l298.641011 298.64101zM882.992183 915.011425H157.633193c-24.014432 0-43.102826 19.088394-43.102826 43.102826s19.088394 43.102826 43.102826 43.102827h725.35899c24.014432 0 43.102826-19.088394 43.102826-43.102827s-19.088394-43.102826-43.102826-43.102826z" fill="#2c2c2c" p-id="4638"></path></svg>